<svg width="150" height="42" viewBox="0 0 150 42" fill="none" xmlns="http://www.w3.org/2000/svg">
<rect y="8" width="150" height="34" fill="#2F303A"/>
<path d="M37.92 39.07C37.46 39.07 37.0533 38.99 36.7 38.83C36.3533 38.67 36.08 38.4467 35.88 38.16C35.68 37.8733 35.5733 37.5533 35.56 37.2H36.3C36.3333 37.54 36.4833 37.84 36.75 38.1C37.0167 38.3533 37.4067 38.48 37.92 38.48C38.3933 38.48 38.7667 38.36 39.04 38.12C39.32 37.8733 39.46 37.5633 39.46 37.19C39.46 36.89 39.3833 36.65 39.23 36.47C39.0767 36.2833 38.8867 36.1467 38.66 36.06C38.4333 35.9667 38.12 35.8667 37.72 35.76C37.2533 35.6333 36.8833 35.51 36.61 35.39C36.3367 35.27 36.1033 35.0833 35.91 34.83C35.7167 34.5767 35.62 34.2333 35.62 33.8C35.62 33.44 35.7133 33.12 35.9 32.84C36.0867 32.5533 36.35 32.33 36.69 32.17C37.03 32.01 37.42 31.93 37.86 31.93C38.5067 31.93 39.0267 32.09 39.42 32.41C39.82 32.7233 40.05 33.13 40.11 33.63H39.35C39.3033 33.3433 39.1467 33.09 38.88 32.87C38.6133 32.6433 38.2533 32.53 37.8 32.53C37.38 32.53 37.03 32.6433 36.75 32.87C36.47 33.09 36.33 33.3933 36.33 33.78C36.33 34.0733 36.4067 34.31 36.56 34.49C36.7133 34.67 36.9033 34.8067 37.13 34.9C37.3633 34.9933 37.6767 35.0933 38.07 35.2C38.5233 35.3267 38.89 35.4533 39.17 35.58C39.45 35.7 39.6867 35.8867 39.88 36.14C40.0733 36.3933 40.17 36.7333 40.17 37.16C40.17 37.4867 40.0833 37.7967 39.91 38.09C39.7367 38.3833 39.48 38.62 39.14 38.8C38.8 38.98 38.3933 39.07 37.92 39.07ZM46.7127 32.01V39H46.0127V35.73H42.2227V39H41.5227V32.01H42.2227V35.15H46.0127V32.01H46.7127ZM52.3598 37.34H49.1798L48.5698 39H47.8298L50.3798 32.1H51.1698L53.7098 39H52.9698L52.3598 37.34ZM52.1498 36.76L50.7698 32.98L49.3898 36.76H52.1498ZM56.9032 32.01C57.6765 32.01 58.3399 32.15 58.8932 32.43C59.4465 32.71 59.8699 33.1133 60.1632 33.64C60.4565 34.1667 60.6032 34.7933 60.6032 35.52C60.6032 36.24 60.4565 36.8633 60.1632 37.39C59.8699 37.91 59.4465 38.31 58.8932 38.59C58.3399 38.8633 57.6765 39 56.9032 39H54.8332V32.01H56.9032ZM56.9032 38.42C57.8765 38.42 58.6165 38.1667 59.1232 37.66C59.6365 37.1467 59.8932 36.4333 59.8932 35.52C59.8932 34.6 59.6365 33.8833 59.1232 33.37C58.6165 32.85 57.8765 32.59 56.9032 32.59H55.5332V38.42H56.9032ZM65.0338 39.07C64.3871 39.07 63.8004 38.92 63.2738 38.62C62.7471 38.3133 62.3304 37.89 62.0238 37.35C61.7238 36.8033 61.5738 36.1867 61.5738 35.5C61.5738 34.8133 61.7238 34.2 62.0238 33.66C62.3304 33.1133 62.7471 32.69 63.2738 32.39C63.8004 32.0833 64.3871 31.93 65.0338 31.93C65.6871 31.93 66.2771 32.0833 66.8038 32.39C67.3304 32.69 67.7438 33.1133 68.0438 33.66C68.3438 34.2 68.4938 34.8133 68.4938 35.5C68.4938 36.1867 68.3438 36.8033 68.0438 37.35C67.7438 37.89 67.3304 38.3133 66.8038 38.62C66.2771 38.92 65.6871 39.07 65.0338 39.07ZM65.0338 38.46C65.5538 38.46 66.0204 38.34 66.4338 38.1C66.8471 37.86 67.1738 37.5167 67.4138 37.07C67.6538 36.6167 67.7738 36.0933 67.7738 35.5C67.7738 34.9067 67.6538 34.3867 67.4138 33.94C67.1738 33.4933 66.8471 33.15 66.4338 32.91C66.0204 32.67 65.5538 32.55 65.0338 32.55C64.5138 32.55 64.0471 32.67 63.6338 32.91C63.2204 33.15 62.8938 33.4933 62.6538 33.94C62.4138 34.3867 62.2938 34.9067 62.2938 35.5C62.2938 36.0933 62.4138 36.6167 62.6538 37.07C62.8938 37.5167 63.2204 37.86 63.6338 38.1C64.0471 38.34 64.5138 38.46 65.0338 38.46ZM78.2546 32.01L76.2746 39H75.4946L73.7346 33.04L71.9346 39L71.1746 39.01L69.2346 32.01H69.9846L71.5846 38.14L73.3746 32.01H74.1546L75.8946 38.14L77.5046 32.01H78.2546ZM87.5695 34.05C87.3695 33.59 87.0629 33.23 86.6495 32.97C86.2429 32.7033 85.7629 32.57 85.2095 32.57C84.6895 32.57 84.2229 32.69 83.8095 32.93C83.3962 33.17 83.0695 33.5133 82.8295 33.96C82.5895 34.4 82.4695 34.9133 82.4695 35.5C82.4695 36.0867 82.5895 36.6033 82.8295 37.05C83.0695 37.4967 83.3962 37.84 83.8095 38.08C84.2229 38.32 84.6895 38.44 85.2095 38.44C85.6962 38.44 86.1329 38.3367 86.5195 38.13C86.9129 37.9167 87.2262 37.6167 87.4595 37.23C87.6995 36.8367 87.8362 36.38 87.8695 35.86H84.9295V35.29H88.6095V35.8C88.5762 36.4133 88.4095 36.97 88.1095 37.47C87.8095 37.9633 87.4062 38.3533 86.8995 38.64C86.3995 38.9267 85.8362 39.07 85.2095 39.07C84.5629 39.07 83.9762 38.92 83.4495 38.62C82.9229 38.3133 82.5062 37.89 82.1995 37.35C81.8995 36.8033 81.7495 36.1867 81.7495 35.5C81.7495 34.8133 81.8995 34.2 82.1995 33.66C82.5062 33.1133 82.9229 32.69 83.4495 32.39C83.9762 32.0833 84.5629 31.93 85.2095 31.93C85.9562 31.93 86.6095 32.1167 87.1695 32.49C87.7295 32.8633 88.1362 33.3833 88.3895 34.05H87.5695ZM93.0318 39.07C92.3851 39.07 91.7985 38.92 91.2718 38.62C90.7451 38.3133 90.3285 37.89 90.0218 37.35C89.7218 36.8033 89.5718 36.1867 89.5718 35.5C89.5718 34.8133 89.7218 34.2 90.0218 33.66C90.3285 33.1133 90.7451 32.69 91.2718 32.39C91.7985 32.0833 92.3851 31.93 93.0318 31.93C93.6851 31.93 94.2751 32.0833 94.8018 32.39C95.3285 32.69 95.7418 33.1133 96.0418 33.66C96.3418 34.2 96.4918 34.8133 96.4918 35.5C96.4918 36.1867 96.3418 36.8033 96.0418 37.35C95.7418 37.89 95.3285 38.3133 94.8018 38.62C94.2751 38.92 93.6851 39.07 93.0318 39.07ZM93.0318 38.46C93.5518 38.46 94.0185 38.34 94.4318 38.1C94.8451 37.86 95.1718 37.5167 95.4118 37.07C95.6518 36.6167 95.7718 36.0933 95.7718 35.5C95.7718 34.9067 95.6518 34.3867 95.4118 33.94C95.1718 33.4933 94.8451 33.15 94.4318 32.91C94.0185 32.67 93.5518 32.55 93.0318 32.55C92.5118 32.55 92.0451 32.67 91.6318 32.91C91.2185 33.15 90.8918 33.4933 90.6518 33.94C90.4118 34.3867 90.2918 34.9067 90.2918 35.5C90.2918 36.0933 90.4118 36.6167 90.6518 37.07C90.8918 37.5167 91.2185 37.86 91.6318 38.1C92.0451 38.34 92.5118 38.46 93.0318 38.46ZM103.313 32.01L100.663 39H99.8627L97.2127 32.01H97.9727L100.263 38.24L102.573 32.01H103.313ZM105.064 32.58V35.19H107.714V35.77H105.064V38.42H108.014V39H104.364V32H108.014V32.58H105.064ZM113.114 39L111.384 36.08H110.094V39H109.394V32.01H111.494C112.274 32.01 112.864 32.1967 113.264 32.57C113.67 32.9433 113.874 33.4333 113.874 34.04C113.874 34.5467 113.727 34.98 113.434 35.34C113.147 35.6933 112.72 35.9233 112.154 36.03L113.954 39H113.114ZM110.094 35.51H111.504C112.05 35.51 112.46 35.3767 112.734 35.11C113.014 34.8433 113.154 34.4867 113.154 34.04C113.154 33.58 113.02 33.2267 112.754 32.98C112.487 32.7267 112.067 32.6 111.494 32.6H110.094V35.51ZM120.533 39H119.833L115.963 33.12V39H115.263V32.01H115.963L119.833 37.88V32.01H120.533V39ZM128.948 32.1V39H128.248V33.49L125.788 39H125.278L122.818 33.51V39H122.118V32.1H122.858L125.528 38.08L128.198 32.1H128.948ZM131.236 32.58V35.19H133.886V35.77H131.236V38.42H134.186V39H130.536V32H134.186V32.58H131.236ZM140.836 39H140.136L136.266 33.12V39H135.566V32.01H136.266L140.136 37.88V32.01H140.836V39ZM146.511 32.01V32.59H144.571V39H143.871V32.59H141.921V32.01H146.511Z" fill="#F2F2F2"/>
<path d="M19.71 21.208C18.5653 9.14644 9.69357 12.4131 5.4008 15.5541V14.6118C22.5719 1.79644 22.0949 13.6695 19.71 21.208Z" fill="#57B894"/>
<path d="M24.4797 11.3137L23.5258 9.90028C27.3416 8.76951 29.5675 11.6278 30.2034 13.1984C30.585 29.0291 18.2791 29.5317 12.0784 27.8041L15.8942 26.3907L18.7561 24.9772L21.6179 22.6214L22.5719 20.7368L23.5258 18.8522L24.4797 16.0253V13.1984V11.3137Z" fill="#6C63FF"/>
<path d="M24.4797 30.1599C10.7429 35.4368 7.94466 26.7048 8.26264 21.6791C2.15738 29.2176 6.99071 35.4996 10.1705 37.6984C19.71 39.583 23.6848 33.458 24.4797 30.1599Z" fill="#FFB9B9"/>
<path d="M14.4633 15.5541C5.30541 16.6849 3.01594 28.5894 3.01594 34.4003C-1.94459 30.2541 0.31309 23.2496 2.06199 20.2657C5.4962 14.6118 11.7605 14.7689 14.4633 15.5541Z" fill="#F2F2F2"/>
<path d="M42.584 26.168C41.352 26.168 40.248 25.968 39.272 25.568C38.296 25.168 37.512 24.576 36.92 23.792C36.344 23.008 36.04 22.064 36.008 20.96H40.376C40.44 21.584 40.656 22.064 41.024 22.4C41.392 22.72 41.872 22.88 42.464 22.88C43.072 22.88 43.552 22.744 43.904 22.472C44.256 22.184 44.432 21.792 44.432 21.296C44.432 20.88 44.288 20.536 44 20.264C43.728 19.992 43.384 19.768 42.968 19.592C42.568 19.416 41.992 19.216 41.24 18.992C40.152 18.656 39.264 18.32 38.576 17.984C37.888 17.648 37.296 17.152 36.8 16.496C36.304 15.84 36.056 14.984 36.056 13.928C36.056 12.36 36.624 11.136 37.76 10.256C38.896 9.36 40.376 8.912 42.2 8.912C44.056 8.912 45.552 9.36 46.688 10.256C47.824 11.136 48.432 12.368 48.512 13.952H44.072C44.04 13.408 43.84 12.984 43.472 12.68C43.104 12.36 42.632 12.2 42.056 12.2C41.56 12.2 41.16 12.336 40.856 12.608C40.552 12.864 40.4 13.24 40.4 13.736C40.4 14.28 40.656 14.704 41.168 15.008C41.68 15.312 42.48 15.64 43.568 15.992C44.656 16.36 45.536 16.712 46.208 17.048C46.896 17.384 47.488 17.872 47.984 18.512C48.48 19.152 48.728 19.976 48.728 20.984C48.728 21.944 48.48 22.816 47.984 23.6C47.504 24.384 46.8 25.008 45.872 25.472C44.944 25.936 43.848 26.168 42.584 26.168ZM71.1256 9.152V26H67.0216V19.064H60.6376V26H56.5336V9.152H60.6376V15.752H67.0216V9.152H71.1256ZM89.8563 23.024H83.5683L82.5603 26H78.2643L84.3603 9.152H89.1123L95.2083 26H90.8643L89.8563 23.024ZM88.8003 19.856L86.7123 13.688L84.6483 19.856H88.8003ZM113.528 14.48C113.224 13.92 112.784 13.496 112.208 13.208C111.648 12.904 110.984 12.752 110.216 12.752C108.888 12.752 107.824 13.192 107.024 14.072C106.224 14.936 105.824 16.096 105.824 17.552C105.824 19.104 106.24 20.32 107.072 21.2C107.92 22.064 109.08 22.496 110.552 22.496C111.56 22.496 112.408 22.24 113.096 21.728C113.8 21.216 114.312 20.48 114.632 19.52H109.424V16.496H118.352V20.312C118.048 21.336 117.528 22.288 116.792 23.168C116.072 24.048 115.152 24.76 114.032 25.304C112.912 25.848 111.648 26.12 110.24 26.12C108.576 26.12 107.088 25.76 105.776 25.04C104.48 24.304 103.464 23.288 102.728 21.992C102.008 20.696 101.648 19.216 101.648 17.552C101.648 15.888 102.008 14.408 102.728 13.112C103.464 11.8 104.48 10.784 105.776 10.064C107.072 9.328 108.552 8.96 110.216 8.96C112.232 8.96 113.928 9.448 115.304 10.424C116.696 11.4 117.616 12.752 118.064 14.48H113.528ZM136.393 23.024H130.105L129.097 26H124.801L130.897 9.152H135.649L141.745 26H137.401L136.393 23.024ZM135.337 19.856L133.249 13.688L131.185 19.856H135.337Z" fill="#F2F2F2"/>
</svg>
