<svg width="694" height="450" viewBox="0 0 694 450" fill="none" xmlns="http://www.w3.org/2000/svg">
<path opacity="0.4" d="M585.731 173.007C594.915 173.007 602.36 166.584 602.36 158.661C602.36 150.738 594.915 144.315 585.731 144.315C576.547 144.315 569.101 150.738 569.101 158.661C569.101 166.584 576.547 173.007 585.731 173.007Z" fill="#6C63FF"/>
<path opacity="0.4" d="M235.12 94.08C248.212 94.08 258.825 84.9238 258.825 73.6291C258.825 62.3343 248.212 53.1781 235.12 53.1781C222.028 53.1781 211.414 62.3343 211.414 73.6291C211.414 84.9238 222.028 94.08 235.12 94.08Z" fill="#6C63FF"/>
<path opacity="0.4" d="M191.247 97.7429C200.431 97.7429 207.876 91.3199 207.876 83.3967C207.876 75.4735 200.431 69.0505 191.247 69.0505C182.063 69.0505 174.618 75.4735 174.618 83.3967C174.618 91.3199 182.063 97.7429 191.247 97.7429Z" fill="#6C63FF"/>
<path d="M599.658 319.089C586.519 331.499 586.041 349.577 586.041 349.577C586.041 349.577 606.868 347.534 620.007 335.124C633.146 322.713 633.623 304.635 633.623 304.635C633.623 304.635 612.797 306.678 599.658 319.089Z" fill="#3F3D56"/>
<path d="M607.08 322.66C603.104 339.114 586.391 350.027 586.391 350.027C586.391 350.027 576.124 334.262 580.1 317.808C584.076 301.353 600.789 290.44 600.789 290.44C600.789 290.44 611.056 306.205 607.08 322.66Z" fill="#6C63FF"/>
<path d="M590.015 152.873V349.024L514.227 403.037H126.497V197.41L239.63 152.873H590.015Z" fill="#3F3D56"/>
<path opacity="0.1" d="M590.015 152.873V153.659L562.808 169.37L514.227 197.41H126.497L239.63 152.873H590.015Z" fill="black"/>
<path opacity="0.1" d="M590.015 152.873V349.024L514.227 403.037L514.776 196.936L562.808 169.37L589.576 152.873H590.015Z" fill="black"/>
<path d="M487.865 179.879H251.713L269.287 171.351H495.555L487.865 179.879Z" fill="#2F2E41"/>
<path d="M691.681 413.706C691.681 413.706 696.26 430.222 692.098 430.941C687.936 431.659 667.542 431.427 662.548 432.145C657.554 432.863 647.149 431.659 647.149 428.427C647.149 425.196 657.97 423.041 657.97 423.041C657.97 423.041 673.369 415.86 673.785 415.501C674.201 415.142 691.681 413.706 691.681 413.706Z" fill="#6C63FF"/>
<path d="M687.936 316.402C687.936 316.402 686.687 328.61 686.687 329.687C686.687 330.764 687.936 347.64 686.687 348.358C685.439 349.076 687.52 354.103 687.52 355.898C687.52 357.693 694.179 387.495 692.514 398.985C690.849 410.474 695.011 409.397 693.763 410.474C692.514 411.552 692.514 411.552 692.514 413.706C692.514 415.86 679.196 417.656 679.196 417.656L664.629 338.304L672.12 314.607L687.936 316.402Z" fill="#575A89"/>
<path opacity="0.1" d="M687.936 316.402C687.936 316.402 686.687 328.61 686.687 329.687C686.687 330.764 687.936 347.64 686.687 348.358C685.439 349.076 687.52 354.103 687.52 355.898C687.52 357.693 694.179 387.495 692.514 398.985C690.849 410.474 695.011 409.397 693.763 410.474C692.514 411.552 692.514 411.552 692.514 413.706C692.514 415.86 679.196 417.656 679.196 417.656L664.629 338.304L672.12 314.607L687.936 316.402Z" fill="black"/>
<path d="M685.855 418.733C685.855 418.733 690.017 431.659 685.855 432.377C681.693 433.095 661.3 431.554 656.305 432.272C651.311 432.99 640.906 433.095 640.906 429.863C640.906 426.632 651.727 424.478 651.727 424.478C651.727 424.478 667.126 417.296 667.542 416.937C667.959 416.578 685.855 418.733 685.855 418.733Z" fill="#6C63FF"/>
<path d="M691.682 302.04C691.682 302.04 696.676 312.452 690.849 317.838C685.023 323.224 678.363 333.996 678.363 334.714C678.363 335.432 690.017 406.884 688.352 411.552C686.687 416.219 687.103 419.092 687.52 419.81C687.936 420.528 683.358 424.478 678.363 424.478C673.369 424.478 665.878 421.246 665.045 418.374C664.213 415.501 666.294 390.726 665.878 386.059C665.461 381.391 663.38 374.569 662.548 373.133C661.716 371.696 657.138 370.26 656.305 365.952C655.473 361.643 648.814 306.708 650.895 304.912C652.976 303.117 691.682 302.04 691.682 302.04Z" fill="#575A89"/>
<path d="M660.051 219.457C667.866 219.457 674.201 213.992 674.201 207.249C674.201 200.507 667.866 195.042 660.051 195.042C652.236 195.042 645.9 200.507 645.9 207.249C645.9 213.992 652.236 219.457 660.051 219.457Z" fill="#FFB9B9"/>
<path d="M668.791 213.353C668.791 213.353 665.878 226.638 667.959 228.075C670.039 229.511 652.143 231.665 652.143 231.665C652.143 231.665 650.062 214.071 649.646 212.276C649.23 210.481 668.791 213.353 668.791 213.353Z" fill="#FFB9B9"/>
<path d="M649.646 230.588C649.646 230.588 654.64 218.021 675.034 221.612C675.034 221.612 678.78 222.689 677.531 223.766C676.282 224.843 675.034 224.843 676.699 225.92C678.363 226.997 680.444 225.92 679.196 226.997C677.947 228.075 690.433 234.537 689.601 246.745C688.768 258.953 692.514 276.188 689.601 279.06C686.687 281.933 691.682 294.5 690.849 297.013C690.017 299.526 695.843 302.758 693.346 303.835C690.849 304.912 645.9 311.375 644.652 303.835C643.403 296.295 644.236 301.681 642.987 299.885C641.738 298.09 641.322 294.859 642.155 290.909C642.987 286.96 645.068 277.265 644.236 273.674C643.403 270.084 644.236 239.923 646.733 236.333C649.23 232.742 649.646 230.588 649.646 230.588Z" fill="#6C63FF"/>
<path d="M658.386 318.197C658.386 318.197 664.629 338.663 656.721 338.663C648.814 338.663 649.23 317.479 649.23 317.479L658.386 318.197Z" fill="#FFB9B9"/>
<path d="M653.808 207.249C653.808 208.291 655.556 208.951 658.265 209.102H658.27C659.418 209.158 660.57 209.139 661.716 209.045C663.447 208.908 664.163 210.312 664.458 212.165C664.941 215.22 664.267 219.504 665.045 220.175C666.119 221.102 673.948 220.172 676.395 218.071C676.776 217.777 677.03 217.379 677.115 216.944C677.372 215.661 678.105 214.485 679.204 213.594C680.648 212.233 682.704 210.725 685.022 208.327C689.184 204.018 685.022 203.659 683.774 200.427C682.525 197.196 680.444 196.119 680.444 193.964C680.444 191.81 670.872 190.015 662.964 190.374C655.057 190.733 656.721 199.35 656.721 199.35C656.721 199.35 656.251 200.391 655.689 201.734C654.929 203.419 654.312 205.15 653.841 206.912C653.822 207.024 653.811 207.136 653.808 207.249V207.249Z" fill="#2F2E41"/>
<path opacity="0.1" d="M655.473 235.974C655.473 235.974 669.623 235.256 670.872 253.208C672.12 271.161 671.704 288.037 671.704 288.396C671.704 288.755 665.878 322.865 660.467 322.865C655.057 322.865 650.895 322.147 649.646 320.352C648.398 318.556 652.976 292.704 652.976 292.704C652.976 292.704 655.057 265.416 651.727 256.799C648.398 248.182 647.981 237.051 655.473 235.974Z" fill="black"/>
<path d="M653.392 234.178C653.392 234.178 667.542 233.46 668.791 251.413C670.039 269.366 669.623 286.241 669.623 286.601C669.623 286.96 663.797 321.07 658.386 321.07C652.976 321.07 648.814 320.352 647.565 318.556C646.317 316.761 650.895 290.909 650.895 290.909C650.895 290.909 652.976 263.621 649.646 255.004C646.317 246.386 645.9 235.256 653.392 234.178Z" fill="#6C63FF"/>
<path d="M418.745 58.668C418.745 58.668 412.578 43.5939 408.124 48.323C403.671 53.0521 414.977 61.0325 414.977 61.0325L418.745 58.668Z" fill="#A0616A"/>
<path d="M447.866 43.8895L444.157 45.0756C444.157 45.0756 442.385 51.8698 443.07 53.0521C443.755 54.2344 444.098 53.3477 443.07 55.7123C442.042 58.0768 438.959 64.2838 438.616 65.1705C438.274 66.0572 418.745 59.5547 418.745 56.3034C418.745 56.3034 414.634 60.4414 412.578 61.3281C412.578 61.3281 435.19 75.5154 438.274 77.2888C441.357 79.0623 443.07 78.1755 445.811 76.1066C448.552 74.0376 460.2 56.8945 460.2 56.8945L447.866 43.8895Z" fill="#575A89"/>
<path d="M437.931 148.817C437.931 148.817 438.274 152.068 438.959 152.363C439.644 152.659 444.783 160.048 438.959 161.526C433.135 163.004 429.709 162.413 428.338 163.004C426.968 163.595 402.985 164.777 402.643 161.526C402.3 158.275 414.291 157.684 414.291 157.684C414.291 157.684 425.255 151.477 426.968 148.225C428.681 144.974 437.931 148.817 437.931 148.817Z" fill="#2F2E41"/>
<path d="M507.48 154.728C507.48 154.728 515.702 166.846 513.647 168.324C511.591 169.802 491.572 175.188 488.636 175.418C484.868 175.714 482.127 173.053 485.21 171.576C488.294 170.098 494.803 163.891 494.803 161.822V156.501L507.48 154.728Z" fill="#2F2E41"/>
<path d="M515.359 75.5154C515.359 75.5154 522.554 83.2002 511.248 95.6141L492.405 116.304C492.405 116.304 504.054 132.265 504.396 140.541C504.739 148.817 507.137 147.043 507.822 150.59C508.507 154.137 511.591 152.364 509.193 155.024C506.794 157.684 497.887 160.048 495.146 157.979C494.203 157.235 493.467 156.317 492.992 155.294C492.518 154.27 492.317 153.168 492.405 152.068C492.405 150.886 487.609 144.088 487.266 142.019C486.923 139.95 474.247 123.102 474.247 123.102C474.247 123.102 470.136 113.053 474.932 107.437C479.729 101.821 482.898 93.8563 482.898 93.8563C482.898 93.8563 468.765 108.619 458.83 112.166C458.83 112.166 455.061 112.757 455.746 114.235C456.432 115.713 455.746 116.6 454.719 118.077C453.691 119.555 446.496 136.698 444.098 141.132C441.7 145.565 442.727 148.226 439.987 149.703C437.246 151.181 424.912 149.999 424.912 148.521C424.912 147.043 426.625 143.201 427.653 141.132C428.681 139.063 436.903 115.122 436.218 110.984C435.533 106.846 436.561 101.23 441.7 98.8654C446.839 96.5009 472.877 77.2888 474.247 77.2888C475.617 77.2888 515.359 75.5154 515.359 75.5154Z" fill="#2F2E41"/>
<path d="M446.496 29.111C454.443 29.111 460.886 23.5531 460.886 16.6971C460.886 9.84104 454.443 4.28314 446.496 4.28314C438.549 4.28314 432.107 9.84104 432.107 16.6971C432.107 23.5531 438.549 29.111 446.496 29.111Z" fill="#A0616A"/>
<path d="M458.145 17.8793C458.145 17.8793 462.599 24.6775 468.08 25.5642C473.562 26.4509 453.691 40.0471 453.691 40.0471C453.691 40.0471 448.894 27.042 444.783 26.4509C440.672 25.8598 458.145 17.8793 458.145 17.8793Z" fill="#A0616A"/>
<path d="M444.098 45.6629C444.098 49.5053 457.459 60.4414 457.459 60.4414L470.136 69.604C470.136 69.604 470.478 72.8553 471.849 73.1508C473.219 73.4464 474.932 73.4464 473.562 75.2198C472.191 76.9932 468.765 80.8356 471.849 81.4268C472.778 81.5487 473.715 81.6257 474.655 81.6573C475.477 81.6987 476.443 81.7371 477.529 81.7726C480.064 81.8494 483.237 81.8997 486.673 81.879C487.65 81.876 488.643 81.8662 489.654 81.8494C502.608 81.6278 517.614 80.342 516.387 76.1065C514.332 69.0129 515.702 66.6483 511.248 62.8059C506.794 58.9635 499.6 45.6629 499.6 45.6629C499.6 45.6629 485.21 24.6774 473.219 24.6774L470.728 24.1129C469.571 23.8499 468.347 23.9076 467.23 24.2778C466.113 24.6481 465.159 25.3121 464.503 26.176C462.098 29.3356 458.306 34.0824 456.089 35.6135C452.663 37.978 452.128 36.2815 452.128 36.2815C452.128 36.2815 444.098 41.8205 444.098 45.6629Z" fill="#030417"/>
<path d="M474.59 90.5894C474.59 90.5894 464.654 103.89 470.821 106.255C476.988 108.619 480.414 92.3629 480.414 92.3629L474.59 90.5894Z" fill="#A0616A"/>
<path d="M455.903 15.2949C455.351 15.2348 455.176 14.6336 455.083 14.1601C454.585 11.6247 452.395 9.22036 449.452 8.81106C448.328 8.68197 447.184 8.76149 446.098 9.04432C444.541 9.41272 443.08 10.0331 441.793 10.8723C441.163 11.3691 440.434 11.7639 439.642 12.0376C439.102 12.1744 436.809 13.0537 436.274 13.2025C435.096 13.5296 434.121 14.5931 432.908 14.3825C431.748 14.1811 431.307 12.9722 431.121 11.9637C430.696 9.66634 432.22 6.23841 433.735 4.31406C434.886 2.85375 436.832 2.01333 438.777 1.46657C441.057 0.869614 443.399 0.468101 445.77 0.267858C448.971 -0.0582466 452.286 -0.231263 455.353 0.622244C458.42 1.47575 461.213 3.56362 461.786 6.2998C461.905 6.86977 461.927 7.45358 462.074 8.01887C462.43 9.39789 463.488 10.557 464.105 11.8659C464.55 12.8271 464.756 13.8581 464.711 14.8925C464.666 15.9269 464.37 16.9416 463.843 17.8712C462.988 19.3534 461.503 20.7777 461.823 22.4097L459.18 20.6112C458.798 20.4239 458.502 20.1293 458.341 19.7764C458.18 19.4236 458.165 19.0339 458.297 18.6724L458.681 15.8164C458.815 15.299 458.754 14.7585 458.51 14.2723C457.335 12.5014 456.824 15.3951 455.903 15.2949Z" fill="#2F2E41"/>
<path opacity="0.1" d="M480.756 70.1952L477.529 81.7726C480.784 81.8731 485.09 81.9263 489.654 81.8495C490.805 78.8701 491.905 75.7637 492.748 72.8553C495.831 62.2148 490.692 45.9585 487.951 38.2737C485.21 30.5888 478.358 28.5199 478.358 28.5199C475.549 29.3721 472.896 30.5665 470.478 32.0667C466.025 34.7268 480.756 70.1952 480.756 70.1952Z" fill="black"/>
<path opacity="0.1" d="M478.016 69.604L474.655 81.6573C475.477 81.6987 476.443 81.7371 477.529 81.7726C480.064 81.8495 483.237 81.8997 486.673 81.879C487.91 78.7135 489.106 75.3735 490.007 72.2641C493.09 61.6236 487.951 45.3673 485.21 37.6825C482.47 29.9977 476.474 38.4214 476.474 38.4214C476.474 38.4214 478.872 33.3967 474.418 36.0568C469.965 38.717 478.016 69.604 478.016 69.604Z" fill="black"/>
<path d="M476.988 27.9287C476.988 27.9287 483.84 29.9977 486.581 37.6825C489.322 45.3673 494.461 61.6236 491.377 72.2641C488.294 82.9046 481.784 96.2053 481.784 96.2053C481.784 96.2053 475.275 92.0673 472.877 92.954L479.386 69.604C479.386 69.604 464.654 34.1357 469.108 31.4755C471.525 29.9753 474.179 28.781 476.988 27.9287V27.9287Z" fill="#575A89"/>
<path d="M482.095 176.184L387.308 5.77771L228.816 71.3933L287.105 176.184H482.095Z" fill="#F2F2F2"/>
<path d="M355.232 72.666L271.051 107.517L273.558 112.024L357.739 77.1737L355.232 72.666Z" fill="#3F3D56"/>
<path d="M377.519 112.734L293.339 147.585L295.846 152.093L380.027 117.242L377.519 112.734Z" fill="#3F3D56"/>
<path d="M392.829 49.09L371.929 57.7426L381.959 75.7734L402.859 67.1208L392.829 49.09Z" fill="#3F3D56"/>
<path d="M415.117 89.1585L394.217 97.8111L404.247 115.842L425.147 107.189L415.117 89.1585Z" fill="#3F3D56"/>
<path d="M394.269 36.6008L385.662 57.7285L374.059 54.2101L372.471 58.1075L388.577 62.9905L398.786 37.9706L394.269 36.6008Z" fill="#57B894"/>
<path d="M416.557 76.669L407.95 97.7968L396.347 94.279L394.76 98.1757L410.864 103.059L421.075 78.0388L416.557 76.669Z" fill="#57B894"/>
<path d="M9.14763 372.311L51.9719 364.419L42.8243 327.474L2.9447e-05 335.366L9.14763 372.311Z" fill="#F2F2F2"/>
<path d="M50.7809 317.603C50.7809 317.603 35.0514 327.295 40.2946 331.173C45.5377 335.05 56.024 319.541 56.024 319.541L50.7809 317.603Z" fill="#FFB9B9"/>
<path d="M123.436 332.465C123.436 332.465 120.44 364.775 119.691 369.298C118.942 373.821 118.193 414.531 116.695 419.055C115.197 423.578 113.699 434.563 113.699 434.563H104.71C104.71 434.563 105.459 414.531 103.212 406.777C100.965 399.023 101.714 377.698 101.714 377.698C101.714 377.698 97.2201 339.573 99.4672 334.404C101.714 329.234 123.436 332.465 123.436 332.465Z" fill="#FFB9B9"/>
<path d="M111.452 432.625C111.452 432.625 115.197 434.563 115.197 435.856C115.197 437.148 114.448 440.379 115.197 441.671C115.946 442.964 121.189 448.133 118.193 449.426C115.197 450.718 101.714 449.426 101.714 449.426C101.714 449.426 102.463 440.379 103.212 439.733C103.961 439.087 102.463 432.625 102.463 432.625H111.452Z" fill="#2F2E41"/>
<path d="M66.1776 331.673C66.1776 331.673 65.226 364.076 65.4205 368.642C65.6151 373.208 61.4068 413.761 62.3462 418.395C63.2856 423.029 63.4388 434.089 63.4388 434.089L72.3774 434.903C72.3774 434.903 74.0698 414.914 77.2479 407.406C80.426 399.898 82.2757 378.624 82.2757 378.624C82.2757 378.624 91.3837 341.116 89.778 335.772C88.1723 330.427 66.1776 331.673 66.1776 331.673Z" fill="#FFB9B9"/>
<path d="M65.9094 432.365C65.9094 432.365 61.9491 433.953 61.7918 435.239C61.6346 436.524 61.9864 439.805 61.0842 441.022C60.1821 442.24 54.339 446.906 57.1613 448.462C59.9835 450.019 73.5487 449.955 73.5487 449.955C73.5487 449.955 73.9045 440.89 73.2382 440.18C72.572 439.469 74.848 433.179 74.848 433.179L65.9094 432.365Z" fill="#2F2E41"/>
<path d="M112.95 284.001C112.95 284.001 118.942 284.647 121.189 295.632C123.436 306.617 131.675 334.404 124.934 336.342C118.193 338.281 97.9692 342.158 97.2201 340.865C96.4711 339.573 94.9731 336.342 94.9731 336.342C94.9731 336.342 97.2201 342.158 94.2241 342.158C91.228 342.158 62.0162 338.281 62.7652 336.342C63.5142 334.404 65.0123 320.187 65.0123 320.187C65.0123 320.187 69.5064 296.278 74.0005 292.401C75.3011 291.324 76.3109 290.013 76.9582 288.561C77.6054 287.109 77.8743 285.552 77.7456 284.001H112.95Z" fill="#2F2E41"/>
<path d="M124.185 278.831C124.185 278.831 114.448 276.893 112.95 279.477C111.452 282.062 116.695 285.939 118.942 285.939C121.189 285.939 124.934 284.001 124.934 284.001L124.185 278.831Z" fill="#FFB9B9"/>
<path d="M103.961 223.905C111.407 223.905 117.444 218.697 117.444 212.273C117.444 205.85 111.407 200.642 103.961 200.642C96.5152 200.642 90.479 205.85 90.479 212.273C90.479 218.697 96.5152 223.905 103.961 223.905Z" fill="#FFB9B9"/>
<path d="M101.714 220.674C101.714 220.674 99.4672 229.721 100.965 229.721C102.463 229.721 89.7299 235.536 89.7299 235.536L79.9927 234.244L76.9966 230.367C76.9966 230.367 92.726 221.32 92.726 216.151C92.726 210.981 101.714 220.674 101.714 220.674Z" fill="#FFB9B9"/>
<path d="M94.9731 229.721C94.9731 229.721 97.2201 228.428 97.9692 228.428H103.961C104.71 228.428 114.448 230.367 114.448 230.367L120.44 259.445C120.44 259.445 109.954 274.308 117.444 285.939C117.444 285.939 115.197 284.647 104.71 285.293C94.2241 285.939 75.4986 287.878 74.7495 287.878C74.0005 287.878 74.0005 282.708 74.7495 281.416C75.4985 280.124 74.0005 280.77 74.0005 277.539C74.0005 274.308 71.7535 268.492 71.7535 268.492L61.2672 235.536C61.2672 235.536 74.7495 229.074 76.9966 229.721C79.2437 230.367 85.9849 232.305 87.4829 231.659C88.9809 231.013 94.9731 229.721 94.9731 229.721Z" fill="#2F2E41"/>
<path d="M112.201 231.013L114.448 230.367C114.448 230.367 118.942 229.721 124.185 233.598C129.428 237.475 148.903 249.106 148.903 249.106C148.903 249.106 156.393 254.276 154.146 260.092C151.899 265.907 148.154 280.124 136.918 279.477C136.918 279.477 130.177 287.232 126.432 285.939C122.687 284.647 119.691 279.477 121.938 278.831C124.185 278.185 130.177 271.723 130.177 271.723L122.687 259.445H120.44L112.201 255.568L112.201 231.013Z" fill="#2F2E41"/>
<path d="M67.2593 234.89L61.2672 235.536C61.2672 235.536 56.024 237.475 56.7731 245.875C57.5221 254.276 52.2789 292.401 54.526 296.925C54.526 296.925 47.0358 318.895 48.5338 319.541C50.0319 320.187 59.0201 324.065 58.2711 321.48C57.5221 318.895 66.5103 300.802 66.5103 300.802C66.5103 300.802 76.9966 291.109 72.5025 277.539V266.553L67.2593 234.89Z" fill="#2F2E41"/>
<path d="M115.182 223.519L105.66 225.309L104.437 221.264L104.907 225.45L89.546 228.337L88.8705 226.104L89.1302 228.415L79.2915 230.264L77.1868 212.835C75.023 205.682 82.9201 198.059 91.2106 196.192L94.8885 195.364C100.978 193.993 112.046 195.24 113.635 200.493C110.854 209.652 106.112 219.692 115.182 223.519Z" fill="#2F2E41"/>
</svg>
